HIERARCHY
ROOT hip
{
	OFFSET 0.000000 0.000000 0.000000 
	CHANNELS 6 Xposition Yposition Zposition Xrotation Zrotation Yrotation
	JOINT abdomen
	{
		OFFSET 0.000000 3.402643 0.000000 
		CHANNELS 3 Xrotation Zrotation Yrotation
		JOINT chest
		{
			OFFSET 0.000000 8.438565 -0.680529 
			CHANNELS 3 Xrotation Zrotation Yrotation
			JOINT neck
			{
				OFFSET 0.000000 10.207942 -0.272212 
				CHANNELS 3 Xrotation Zrotation Yrotation
				JOINT head
				{
					OFFSET 0.000000 3.130431 0.000000 
					CHANNELS 3 Xrotation Zrotation Yrotation
					End Site
					{
						OFFSET 0.000000 3.130435 0.000000 
					}
				}
			}
			JOINT lCollar
			{
				OFFSET 3.470700 6.669187 -0.816635 
				CHANNELS 3 Yrotation Zrotation Xrotation
				JOINT lShldr
				{
					OFFSET 3.198488 0.000000 0.000000 
					CHANNELS 3 Zrotation Yrotation Xrotation
					JOINT lForeArm
					{
						OFFSET 10.139888 0.000000 0.000000 
						CHANNELS 3 Yrotation Zrotation Xrotation
						JOINT lHand
						{
							OFFSET 8.370511 0.000000 0.000000 
							CHANNELS 3 Zrotation Yrotation Xrotation
							End Site
							{
								OFFSET 4.083176 0.000000 0.000000 
							}
						}
					}
				}
			}
			JOINT rCollar
			{
				OFFSET -3.470700 6.669187 -0.816635 
				CHANNELS 3 Yrotation Zrotation Xrotation
				JOINT rShldr
				{
					OFFSET -3.198488 0.000000 0.000000 
					CHANNELS 3 Zrotation Yrotation Xrotation
					JOINT rForeArm
					{
						OFFSET -10.139888 0.000000 0.000000 
						CHANNELS 3 Yrotation Zrotation Xrotation
						JOINT rHand
						{
							OFFSET -8.370511 0.000000 0.000000 
							CHANNELS 3 Zrotation Yrotation Xrotation
							End Site
							{
								OFFSET -4.083176 0.000000 0.000000 
							}
						}
					}
				}
			}
		}
	}
	JOINT lThigh
	{
		OFFSET 5.308129 -1.633274 1.361059 
		CHANNELS 3 Xrotation Zrotation Yrotation
		JOINT lShin
		{
			OFFSET -2.041588 -20.007561 0.000000 
			CHANNELS 3 Xrotation Zrotation Yrotation
			JOINT lFoot
			{
				OFFSET 0.000000 -19.190928 -1.224953 
				CHANNELS 3 Xrotation Yrotation Zrotation
				End Site
				{
					OFFSET 0.000000 -2.449906 4.627600 
				}
			}
		}
	}
	JOINT rThigh
	{
		OFFSET -5.308129 -1.633274 1.361059 
		CHANNELS 3 Xrotation Zrotation Yrotation
		JOINT rShin
		{
			OFFSET 2.041588 -20.007561 0.000000 
			CHANNELS 3 Xrotation Zrotation Yrotation
			JOINT rFoot
			{
				OFFSET 0.000000 -19.190928 -1.224953 
				CHANNELS 3 Xrotation Yrotation Zrotation
				End Site
				{
					OFFSET 0.000000 -2.449906 4.627600 
				}
			}
		}
	}
}
MOTION
Frames: 10
Frame Time: 0.016667
2.841191 42.470634 85.778816 2.708360 2.819120 -1.985520 -13.633600 0.939936 0.380547 23.877100 -0.506960 0.449018 52.425499 -3.982230 1.436200 -8.603520 0.000000 0.000000 2.000000 -2.000000 0.000000 -1.086890 -57.246799 154.388000 41.631302 -0.317036 0.090883 5.506530 0.844364 -158.938995 -2.000000 2.000000 0.000000 -1.418630 64.943497 144.203995 -40.058998 0.319489 0.087996 5.171920 4.270800 -153.938995 -18.166945 0.950623 -3.026483 24.594200 2.916427 1.835874 -8.243425 7.151214 2.108960 8.975299 -3.061702 -0.149699 17.198055 -8.065857 -1.013022 -23.220793 -6.322618 -0.670497 
3.121104 42.551113 86.258057 2.747420 2.799520 -2.990390 -13.680300 0.838928 0.773816 23.662300 -0.633833 0.619802 52.244801 -4.171450 1.457420 -8.603520 0.000000 0.000000 2.000000 -2.000000 0.000000 -1.409620 -57.079102 155.179001 41.914501 -0.316586 0.091387 5.504050 0.883357 -159.367996 -2.000000 2.000000 0.000000 -0.273626 64.775002 145.453003 -39.961300 0.319639 0.087818 5.154710 4.296210 -154.154007 -17.473106 0.955497 -2.421052 24.613810 2.924006 1.856614 -9.076837 7.069997 2.226918 8.767121 -3.484613 0.700533 17.977333 -7.763650 -1.043901 -22.337845 -6.764617 -0.867675 
3.393052 42.666775 86.769524 2.728390 3.014160 -3.860020 -13.541800 0.711843 1.015040 23.750099 -0.546026 0.711631 52.296600 -4.251110 1.510260 -8.603520 0.000000 0.000000 2.000000 -2.000000 0.000000 -1.456980 -56.775902 155.382996 42.090302 -0.316305 0.091698 5.502850 0.883803 -159.445999 -2.000000 2.000000 0.000000 0.050993 64.812897 146.087006 -39.902699 0.319729 0.087710 5.169000 4.272230 -153.977997 -16.463385 0.647182 -1.585904 24.172695 2.898603 1.818604 -9.601731 6.956569 2.296765 8.551641 -4.261385 1.236437 19.161760 -7.454128 -1.102240 -21.945086 -6.178010 -0.758622 
3.638938 42.794899 87.244270 2.875310 3.101570 -4.736580 -13.557700 0.602119 1.440200 23.652500 -0.624088 0.893876 52.051498 -4.104430 1.730980 -8.603520 0.000000 0.000000 2.000000 -2.000000 0.000000 -1.292950 -56.960400 155.862000 42.080502 -0.316321 0.091681 5.498180 0.902742 -159.552994 -2.000000 2.000000 0.000000 0.735133 64.655296 146.761002 -39.424198 0.320458 0.086832 5.216640 4.214570 -153.363007 -15.718651 0.454797 -0.969801 23.709734 2.899068 1.805186 -9.942895 7.262852 2.426106 8.127821 -4.909748 1.529457 20.148403 -7.070119 -1.165503 -20.962225 -5.863660 -0.797369 
3.890149 42.918091 87.695305 3.217310 3.003080 -5.436460 -13.555400 0.531699 1.666560 23.681900 -0.692328 0.987475 51.636501 -4.297740 1.749120 -8.603520 0.000000 0.000000 2.000000 -2.000000 0.000000 -1.369640 -56.598099 156.291000 42.412498 -0.315788 0.092267 5.498180 0.902742 -159.552994 -2.000000 2.000000 0.000000 1.116840 64.556396 147.356003 -39.414501 0.320472 0.086814 5.226710 4.209470 -153.225998 -15.215001 0.378199 -0.619570 23.227375 2.889232 1.771087 -10.266934 7.487822 2.548874 7.430228 -5.476693 1.357524 21.279783 -6.639908 -1.236839 -20.123838 -5.029698 -0.741332 
4.112231 43.048412 88.124664 3.618000 2.923860 -5.781740 -13.720600 0.457455 1.744910 23.466999 -0.702218 1.009110 51.632702 -4.619760 1.550890 -8.603520 0.000000 0.000000 2.000000 -2.000000 0.000000 -1.389820 -56.577599 156.729996 42.402802 -0.315804 0.092250 5.498020 0.902798 -159.563004 -2.000000 2.000000 0.000000 2.045830 64.417900 148.235001 -39.287498 0.320664 0.086579 5.252350 4.168400 -152.826004 -14.931753 0.211793 -0.579220 22.846945 2.861972 1.771261 -10.668742 7.698958 2.651073 6.757021 -5.882343 1.360531 22.198406 -6.183001 -1.281165 -18.913265 -4.776903 -0.866643 
4.312642 43.171604 88.555023 3.901010 2.757280 -6.012970 -13.876500 0.407547 1.777730 23.213100 -0.663349 1.014030 50.959801 -4.772690 1.695700 -8.603520 0.000000 0.000000 2.000000 -2.000000 0.000000 -1.565620 -56.420200 157.296005 42.490700 -0.315662 0.092405 5.492030 0.932601 -159.953995 -2.000000 2.000000 0.000000 2.662820 64.337997 149.113998 -39.268002 0.320694 0.086543 5.248300 4.181480 -152.942993 -14.375442 0.118728 -0.719823 22.137335 2.851991 1.720640 -10.656884 8.050885 2.726101 6.051589 -6.253128 0.877452 23.447130 -5.776649 -1.350259 -17.470516 -4.898844 -1.087307 
4.485070 43.279224 88.960007 4.038120 2.825010 -6.118770 -13.710900 0.323830 1.747510 23.339899 -0.438935 0.984446 51.125000 -5.132850 1.583860 -8.603520 0.000000 0.000000 2.000000 -2.000000 0.000000 -1.016710 -56.206299 156.847000 42.383202 -0.315835 0.092216 5.497100 0.903137 -159.621994 -2.000000 2.000000 0.000000 2.574090 64.358299 148.751999 -39.297298 0.320650 0.086597 5.270090 4.142240 -152.591995 -13.730605 -0.156761 -0.740362 21.509258 2.823867 1.685678 -10.886939 8.082355 2.770840 5.360370 -6.642310 1.148649 25.097260 -5.325141 -1.483548 -16.455669 -5.045352 -1.284294 
4.642445 43.362553 89.340385 4.311920 2.833770 -6.641670 -13.572000 0.531954 1.915900 23.466801 0.107283 1.089460 50.701900 -4.902850 1.814490 -8.603520 0.000000 0.000000 2.000000 -2.000000 0.000000 -0.742318 -56.197701 156.319000 42.344200 -0.315898 0.092147 5.495410 0.893354 -159.514999 -2.000000 2.000000 0.000000 1.593710 64.026703 148.537003 -39.473099 0.320383 0.086921 5.218800 4.213480 -153.334000 -13.347064 -0.302561 -0.614759 21.126015 2.808527 1.659361 -11.254055 8.477490 2.955700 4.246989 -7.098055 1.294379 26.743841 -4.922889 -1.614276 -14.739731 -4.921659 -1.359650 
4.764883 43.447708 89.711777 4.401340 3.183960 -6.834970 -13.717700 0.257730 2.013210 23.066401 0.214638 1.083660 50.179798 -4.908760 1.866070 -8.603520 0.000000 0.000000 2.000000 -2.000000 0.000000 -0.458705 -56.139198 156.272003 42.207500 -0.316117 0.091906 5.495410 0.893354 -159.514999 -2.000000 2.000000 0.000000 2.462430 63.830299 149.044006 -39.756302 0.319953 0.087442 5.223110 4.211290 -153.274994 -12.815042 -0.901311 -0.546963 20.626904 2.771578 1.621451 -11.422785 8.621588 3.031423 3.089152 -7.857645 1.015885 28.890928 -4.570868 -1.793950 -13.116732 -5.084682 -1.482581 
